<svg width="221" height="220" viewBox="0 0 221 220" fill="none" xmlns="http://www.w3.org/2000/svg">
<circle cx="110.5" cy="110" r="107" stroke="#D8E6F1" stroke-width="6"/>
<path d="M9.09375 110H211.047" stroke="#D8E6F1" stroke-width="6" stroke-linecap="round"/>
<path d="M153.906 110C153.906 140.074 148.758 167.16 140.55 186.616C136.444 196.349 131.631 204.032 126.439 209.237C121.26 214.43 115.876 217 110.5 217C105.124 217 99.7404 214.43 94.5606 209.237C89.3693 204.032 84.5563 196.349 80.4499 186.616C72.2422 167.16 67.0938 140.074 67.0938 110C67.0938 79.9256 72.2422 52.8397 80.4499 33.3844C84.5563 23.6507 89.3693 15.9677 94.5606 10.7629C99.7404 5.5698 105.124 3 110.5 3C115.876 3 121.26 5.5698 126.439 10.7629C131.631 15.9677 136.444 23.6507 140.55 33.3844C148.758 52.8397 153.906 79.9256 153.906 110Z" stroke="#D8E6F1" stroke-width="6"/>
</svg>
